<svg width="227" height="185" viewBox="0 0 227 185" xmlns="http://www.w3.org/2000/svg" xmlns:xlink="http://www.w3.org/1999/xlink" fill="none" overflow="hidden"><mask maskUnits="userSpaceOnUse" x="0.145752" y="0" width="227" height="185" id="path-1-outside-1_2138_7750" fill="#000000"><rect x="0.145752" y="0" width="227" height="185" fill="#FFFFFF"/><path d="M21.1458 24.7674C61.3459 8.56805 83.0017 47.916 65.6086 79.8885 48.2584 111.818 54.6956 125.972 56.7844 131.897 58.0208 135.35 63.3071 135.819 63.7336 130.448 64.501 122.903 65.9931 116.294 68.0393 110.454L61.6868 112.842C61.6868 112.842 69.3179 104.998 75.4993 95.4911L75.4993 95.4061C76.1387 94.5535 76.6925 93.7428 77.2893 92.9754 74.3905 93.7001 70.5967 94.4679 67.8684 94.5106 67.8918 94.4991 79.7273 88.7063 87.095 82.5311L87.095 82.617C88.7148 81.1677 90.4195 79.8458 92.1672 78.6522 89.5243 78.6522 85.6026 78.4817 83.1301 77.9276 83.1931 77.9159 94.8855 75.7389 106.832 70.5946 111.777 68.5057 116.339 67.0141 119.877 65.8631 123.415 64.7121 125.633 62.8789 127.167 60.4491 127.167 60.4491 124.396 61.0461 120.517 61.2166 120.544 61.1958 127.766 55.6682 129.639 52.1366L124.311 52.1366C124.311 52.1366 131.43 45.6567 132.538 40.5838 134.712 30.8215 134.243 29.5846 136.161 24.7674L142.94 31.7586C145.668 31.0339 150.955 28.1352 153.939 31.8866 156.539 35.1263 161.228 36.6187 164.425 36.3631 165.448 36.2352 165.96 36.7042 166.088 37.4715L166.856 42.8006C167.58 48.1713 165.363 49.3224 162.55 51.5389 161.484 52.3915 159.225 55.9725 159.097 59.0418 159.048 60.1975 158.967 61.8942 158.887 63.9793L158.93 63.8582C159.112 70.9399 165.004 73.6795 171.928 66.5877 179.004 59.3834 193.669 38.7089 196.057 35.7664 198.444 32.825 200.917 32.2274 202.622 32.2274 204.327 32.2276 206.075 33.5496 206.373 35.1268 206.672 36.704 206.586 38.026 206.245 39.2196 205.904 40.4129 205.648 41.2655 203.731 41.9901 201.812 42.7148 200.576 43.0988 199.169 45.1024 197.764 47.1045 173.05 87.2574 172.994 87.3485 158.884 109.004 144.773 104.869 141.448 114.461L142.023 112.794C139.301 119.3 140.327 124.222 141.661 128.956 141.695 129.05 147.545 145.544 148.098 147.244 148.652 148.992 149.249 150.612 150.741 151.166 152.233 151.72 153.214 152.189 153.811 153.298 154.45 154.406 154.023 155.6 152.787 155.898 152.76 155.908 149.618 157.011 146.308 158.072 142.94 159.138 142.3 155.727 141.618 154.448 141.586 154.375 133.465 135.881 128.19 124.054 126.953 121.283 122.989 121.282 121.795 124.096L111.01 149.418C109.646 152.274 110.413 152.956 112.8 153.084L118.811 153.511C122.861 153.511 123.969 154.875 124.268 157.688 124.566 160.459 122.136 162.889 116.936 163.4 97.1129 165.532 73.453 160.715 57.4241 153.127 41.3956 145.539 37.0895 122.648 36.6204 116.806 36.0235 109.73 36.8335 98.091 35.512 93.828 35.512 93.828 38.8373 96.1734 39.2209 100.436 39.2209 100.436 43.9097 82.1901 40.4993 69.9979 40.4993 69.9979 43.1425 71.149 45.0608 73.6639 45.0657 73.5596 45.9677 53.8953 34.3606 42.033 34.3606 42.033 38.7095 42.1182 42.6741 43.866 42.6741 43.866 35.3416 31.5882 21.1458 24.7674Z"/></mask><defs><linearGradient x1="131.327" y1="78.8658" x2="195.869" y2="69.9988" gradientUnits="userSpaceOnUse" id="paint0_linear_2138_7750"><stop offset="0.33" stop-color="#343A3F"/><stop offset="0.48" stop-color="#41474C"/><stop offset="0.67" stop-color="#4A5055"/><stop offset="0.94" stop-color="#4D5358"/></linearGradient><linearGradient x1="32.2117" y1="109.432" x2="173.829" y2="59.853" gradientUnits="userSpaceOnUse" id="paint1_linear_2138_7750"><stop offset="0.54" stop-color="#121619"/><stop offset="0.6" stop-color="#33383D"/><stop offset="0.66" stop-color="#4D5358"/></linearGradient></defs><path d="M21.1458 24.7674C61.3459 8.56805 83.0017 47.916 65.6086 79.8885 48.2584 111.818 54.6956 125.972 56.7844 131.897 58.0208 135.35 63.3071 135.819 63.7336 130.448 64.501 122.903 65.9931 116.294 68.0393 110.454L61.6868 112.842C61.6868 112.842 69.3179 104.998 75.4993 95.4911L75.4993 95.4061C76.1387 94.5535 76.6925 93.7428 77.2893 92.9754 74.3905 93.7001 70.5967 94.4679 67.8684 94.5106 67.8918 94.4991 79.7273 88.7063 87.095 82.5311L87.095 82.617C88.7148 81.1677 90.4195 79.8458 92.1672 78.6522 89.5243 78.6522 85.6026 78.4817 83.1301 77.9276 83.1931 77.9159 94.8855 75.7389 106.832 70.5946 111.777 68.5057 116.339 67.0141 119.877 65.8631 123.415 64.7121 125.633 62.8789 127.167 60.4491 127.167 60.4491 124.396 61.0461 120.517 61.2166 120.544 61.1958 127.766 55.6682 129.639 52.1366L124.311 52.1366C124.311 52.1366 131.43 45.6567 132.538 40.5838 134.712 30.8215 134.243 29.5846 136.161 24.7674L142.94 31.7586C145.668 31.0339 150.955 28.1352 153.939 31.8866 156.539 35.1263 161.228 36.6187 164.425 36.3631 165.448 36.2352 165.96 36.7042 166.088 37.4715L166.856 42.8006C167.58 48.1713 165.363 49.3224 162.55 51.5389 161.484 52.3915 159.225 55.9725 159.097 59.0418 159.048 60.1975 158.967 61.8942 158.887 63.9793L158.93 63.8582C159.112 70.9399 165.004 73.6795 171.928 66.5877 179.004 59.3834 193.669 38.7089 196.057 35.7664 198.444 32.825 200.917 32.2274 202.622 32.2274 204.327 32.2276 206.075 33.5496 206.373 35.1268 206.672 36.704 206.586 38.026 206.245 39.2196 205.904 40.4129 205.648 41.2655 203.731 41.9901 201.812 42.7148 200.576 43.0988 199.169 45.1024 197.764 47.1045 173.05 87.2574 172.994 87.3485 158.884 109.004 144.773 104.869 141.448 114.461L142.023 112.794C139.301 119.3 140.327 124.222 141.661 128.956 141.695 129.05 147.545 145.544 148.098 147.244 148.652 148.992 149.249 150.612 150.741 151.166 152.233 151.72 153.214 152.189 153.811 153.298 154.45 154.406 154.023 155.6 152.787 155.898 152.76 155.908 149.618 157.011 146.308 158.072 142.94 159.138 142.3 155.727 141.618 154.448 141.586 154.375 133.465 135.881 128.19 124.054 126.953 121.283 122.989 121.282 121.795 124.096L111.01 149.418C109.646 152.274 110.413 152.956 112.8 153.084L118.811 153.511C122.861 153.511 123.969 154.875 124.268 157.688 124.566 160.459 122.136 162.889 116.936 163.4 97.1129 165.532 73.453 160.715 57.4241 153.127 41.3956 145.539 37.0895 122.648 36.6204 116.806 36.0235 109.73 36.8335 98.091 35.512 93.828 35.512 93.828 38.8373 96.1734 39.2209 100.436 39.2209 100.436 43.9097 82.1901 40.4993 69.9979 40.4993 69.9979 43.1425 71.149 45.0608 73.6639 45.0657 73.5596 45.9677 53.8953 34.3606 42.033 34.3606 42.033 38.7095 42.1182 42.6741 43.866 42.6741 43.866 35.3416 31.5882 21.1458 24.7674Z" fill="#E0E0E0"/><path d="M21.1458 24.7674 13.5828 5.99929C6.14721 8.9956 1.18163 16.0991 0.921747 24.1114 0.661861 32.1238 5.15668 39.5341 12.3825 43.006L21.1458 24.7674ZM65.6086 79.8885 47.8339 70.219 47.8293 70.2274 65.6086 79.8885ZM56.7844 131.897 37.7008 138.625C37.7119 138.656 37.7231 138.687 37.7343 138.719L56.7844 131.897ZM63.7336 130.448 43.6028 128.401C43.5878 128.549 43.5743 128.698 43.5625 128.846L63.7336 130.448ZM68.0393 110.454 87.1358 117.145C89.7341 109.729 87.8039 101.479 82.1853 95.9856 76.5666 90.4922 68.2756 88.7484 60.9201 91.513L68.0393 110.454ZM61.6868 112.842 47.1832 98.7318C40.576 105.523 39.5665 115.99 44.754 123.92 49.9414 131.849 59.9365 135.116 68.806 131.783L61.6868 112.842ZM75.4993 95.4911 92.4631 106.521C94.5977 103.239 95.7339 99.4068 95.7339 95.4911L75.4993 95.4911ZM75.4993 95.4061 59.3116 83.2653C56.6847 86.7678 55.2646 91.0279 55.2646 95.4061L75.4993 95.4061ZM77.2893 92.9754 93.2616 105.398C98.5601 98.5858 98.9546 89.1625 94.244 81.931 89.5333 74.6995 80.7545 71.2518 72.3817 73.3449L77.2893 92.9754ZM67.8684 94.5106 58.9749 76.3351C50.4632 80.5 45.9819 90.0141 48.1916 99.2289 50.4012 108.444 58.7098 114.891 68.1847 114.743L67.8684 94.5106ZM87.095 82.5311 107.33 82.5311C107.33 74.6693 102.776 67.5192 95.6516 64.1947 88.5274 60.8701 80.1223 61.9731 74.097 67.0232L87.095 82.5311ZM87.095 82.617 66.8603 82.617C66.8603 90.5972 71.5506 97.8321 78.8358 101.089 86.1209 104.347 94.6401 103.018 100.587 97.6967L87.095 82.617ZM92.1672 78.6522 103.579 95.3619C110.908 90.3568 114.12 81.16 111.501 72.6804 108.881 64.2008 101.042 58.4176 92.1673 58.4175L92.1672 78.6522ZM83.1301 77.9276 79.4339 58.0334C69.9858 59.7888 63.0756 67.9474 62.8989 77.5556 62.7222 87.1638 69.3279 95.5709 78.7051 97.6724L83.1301 77.9276ZM106.832 70.5946 98.9586 51.9547C98.9155 51.9729 98.8725 51.9912 98.8295 52.0097L106.832 70.5946ZM119.877 65.8631 126.137 85.1052 126.137 85.1052 119.877 65.8631ZM127.167 60.4491 144.275 71.2542C148.626 64.3654 148.421 55.539 143.754 48.86 139.088 42.1809 130.871 38.9523 122.906 40.6683L127.167 60.4491ZM120.517 61.2166 108.222 45.1453C101.203 50.5151 98.4806 59.8194 101.498 68.1261 104.516 76.4328 112.576 81.8199 121.406 81.4317L120.517 61.2166ZM129.639 52.1366 147.516 61.6155C150.842 55.3437 150.637 47.7878 146.977 41.7049 143.318 35.6221 136.738 31.9019 129.639 31.9019L129.639 52.1366ZM124.311 52.1366 110.69 37.1726C104.51 42.7983 102.424 51.6448 105.44 59.439 108.456 67.2332 115.953 72.3712 124.311 72.3712L124.311 52.1366ZM132.538 40.5838 112.788 36.1852C112.782 36.2113 112.776 36.2375 112.77 36.2637L132.538 40.5838ZM136.161 24.7674 150.689 10.6823C145.912 5.75517 138.963 3.58516 132.231 4.91815 125.499 6.25114 119.902 10.9054 117.363 17.2812L136.161 24.7674ZM142.94 31.7586 128.412 45.8438C133.511 51.103 141.055 53.1957 148.134 51.3151L142.94 31.7586ZM153.939 31.8866 138.103 44.4833C138.122 44.5063 138.14 44.5294 138.158 44.5523L153.939 31.8866ZM164.425 36.3631 166.038 56.5334C166.337 56.5094 166.637 56.4788 166.935 56.4415L164.425 36.3631ZM166.088 37.4715 186.116 34.5868C186.095 34.4393 186.072 34.292 186.047 34.145L166.088 37.4715ZM166.856 42.8006 186.909 40.0956C186.901 40.0357 186.892 39.9758 186.884 39.9159L166.856 42.8006ZM162.55 51.5389 150.028 35.6446C149.988 35.6757 149.949 35.7069 149.91 35.7383L162.55 51.5389ZM159.097 59.0418 179.314 59.8961 179.314 59.8854 159.097 59.0418ZM158.887 63.9793 138.667 63.2024C138.283 73.1927 145.253 81.9659 155.072 83.851 164.89 85.7361 174.613 80.1681 177.957 70.746L158.887 63.9793ZM158.93 63.8582 179.158 63.3379C178.907 53.5887 171.738 45.4054 162.106 43.8745 152.475 42.3435 143.122 47.9006 139.86 57.0916L158.93 63.8582ZM171.928 66.5877 157.492 52.4084C157.478 52.4229 157.464 52.4374 157.45 52.4519L171.928 66.5877ZM196.057 35.7664 180.346 23.0152 180.345 23.0156 196.057 35.7664ZM202.622 32.2274 202.625 11.9927 202.622 11.9927 202.622 32.2274ZM206.373 35.1268 226.255 31.3656 226.255 31.3653 206.373 35.1268ZM206.245 39.2196 225.701 44.7785 225.701 44.7784 206.245 39.2196ZM203.731 41.9901 210.882 60.919 210.882 60.9187 203.731 41.9901ZM199.169 45.1024 182.609 33.4749 182.609 33.4753 199.169 45.1024ZM172.994 87.3485 189.948 98.3949C190.043 98.2493 190.136 98.1024 190.227 97.9544L172.994 87.3485ZM141.448 114.461 122.32 107.861C118.676 118.419 124.277 129.933 134.833 133.584 145.389 137.235 156.907 131.642 160.566 121.089L141.448 114.461ZM142.023 112.794 161.151 119.394C164.714 109.068 159.438 97.7777 149.231 93.8865 139.024 89.9953 127.571 94.9079 123.355 104.985L142.023 112.794ZM141.661 128.956 122.186 134.446C122.307 134.875 122.442 135.301 122.591 135.721L141.661 128.956ZM148.098 147.244 167.386 141.128C167.372 141.082 167.357 141.036 167.342 140.99L148.098 147.244ZM150.741 151.166 157.787 132.197 157.787 132.197 150.741 151.166ZM153.811 153.298 135.995 162.891C136.088 163.064 136.184 163.236 136.282 163.407L153.811 153.298ZM152.787 155.898 148.039 136.229C147.377 136.388 146.724 136.582 146.081 136.807L152.787 155.898ZM146.308 158.072 152.413 177.364C152.437 177.356 152.46 177.349 152.484 177.341L146.308 158.072ZM141.618 154.448 123.091 162.583C123.298 163.054 123.522 163.517 123.764 163.97L141.618 154.448ZM128.19 124.054 146.669 115.811 146.669 115.809 128.19 124.054ZM121.795 124.096 140.412 132.025C140.415 132.016 140.419 132.007 140.423 131.999L121.795 124.096ZM111.01 149.418 129.269 158.139C129.394 157.877 129.513 157.613 129.626 157.347L111.01 149.418ZM112.8 153.084 114.233 132.9C114.117 132.892 114 132.884 113.883 132.878L112.8 153.084ZM118.811 153.511 117.378 173.694C117.855 173.728 118.333 173.745 118.811 173.745L118.811 153.511ZM124.268 157.688 104.146 159.822C104.147 159.833 104.148 159.844 104.149 159.855L124.268 157.688ZM116.936 163.4 114.955 143.263C114.894 143.269 114.833 143.275 114.772 143.282L116.936 163.4ZM57.4241 153.127 48.7661 171.416 48.7661 171.416 57.4241 153.127ZM36.6204 116.806 56.7901 115.187C56.7879 115.16 56.7857 115.133 56.7834 115.106L36.6204 116.806ZM35.512 93.828 47.1747 77.2925C40.095 72.2991 30.622 72.3667 23.6144 77.4607 16.6068 82.5546 13.6195 91.5445 16.1847 99.8194L35.512 93.828ZM39.2209 100.436 19.0678 102.25C19.9506 112.06 27.7688 119.809 37.5861 120.605 47.4033 121.401 56.3675 115.012 58.8189 105.472L39.2209 100.436ZM40.4993 69.9979 48.5788 51.4463C41.4182 48.3277 33.102 49.6086 27.2117 54.7374 21.3214 59.8662 18.9087 67.9271 21.0126 75.4487L40.4993 69.9979ZM45.0608 73.6639 28.9724 85.9361C34.1313 92.6991 42.9689 95.5138 51.0887 92.9798 59.2085 90.4459 64.8767 83.1044 65.2734 74.6077L45.0608 73.6639ZM34.3606 42.033 34.7568 21.8023C26.5421 21.6414 19.0457 26.4638 15.7863 34.0058 12.5269 41.5479 14.1516 50.3122 19.8979 56.1847L34.3606 42.033ZM42.6741 43.866 34.5115 62.3812C42.5707 65.9342 52.0025 63.866 57.8354 57.2666 63.6683 50.6672 64.5624 41.0528 60.0464 33.491L42.6741 43.866ZM21.1458 24.7674 28.7087 43.5355C35.5147 40.7929 39.9543 41.0013 42.4479 41.644 44.8856 42.2724 46.8473 43.6519 48.397 45.8662 51.737 50.6383 53.3188 60.1365 47.8339 70.219L65.6086 79.8885 83.3834 89.558C95.2916 67.668 94.742 41.506 81.5523 22.6608 74.8372 13.0664 64.9345 5.6481 52.549 2.45564 40.2193-0.722425 26.8768 0.642225 13.5828 5.99929L21.1458 24.7674ZM65.6086 79.8885 47.8293 70.2274C38.0731 88.1819 34.124 102.757 33.6854 114.915 33.2332 127.448 36.6944 135.77 37.7008 138.625L56.7844 131.897 75.868 125.17C74.7856 122.099 73.9837 120.382 74.1283 116.374 74.2865 111.991 75.7939 103.525 83.388 89.5496L65.6086 79.8885ZM56.7844 131.897 37.7343 138.719C41.3286 148.756 51.2263 155.529 62.1788 154.652 67.9918 154.186 73.6902 151.53 77.8734 146.746 81.9472 142.088 83.5391 136.655 83.9048 132.05L63.7336 130.448 43.5625 128.846C43.7149 126.927 44.486 123.449 47.4101 120.105 50.4435 116.637 54.6631 114.655 58.9466 114.312 66.8402 113.679 73.4766 118.491 75.8345 125.076L56.7844 131.897ZM63.7336 130.448 83.8645 132.495C84.4837 126.406 85.6561 121.368 87.1358 117.145L68.0393 110.454 48.9428 103.763C46.33 111.221 44.5183 119.399 43.6028 128.401L63.7336 130.448ZM68.0393 110.454 60.9201 91.513 54.5676 93.9007 61.6868 112.842 68.806 131.783 75.1585 129.395 68.0393 110.454ZM61.6868 112.842C76.1903 126.951 76.1917 126.95 76.1932 126.949 76.1937 126.948 76.1952 126.946 76.1962 126.945 76.1983 126.943 76.2005 126.941 76.2028 126.939 76.2075 126.934 76.2126 126.929 76.2182 126.923 76.2294 126.911 76.2424 126.898 76.2573 126.882 76.2871 126.852 76.3243 126.813 76.3686 126.767 76.4572 126.675 76.5743 126.552 76.7177 126.401 77.0043 126.098 77.397 125.679 77.8771 125.156 78.8353 124.113 80.1545 122.643 81.6841 120.846 84.6968 117.307 88.7389 112.249 92.4631 106.521L75.4993 95.4911 58.5354 84.4607C56.0783 88.2396 53.2142 91.8574 50.8659 94.6163 49.715 95.9686 48.7402 97.0536 48.0743 97.7785 47.7425 98.1397 47.4906 98.4079 47.3357 98.5714 47.2584 98.6531 47.2056 98.7083 47.1793 98.7356 47.1662 98.7493 47.1598 98.7559 47.1604 98.7553 47.1607 98.755 47.1627 98.7529 47.1665 98.749 47.1684 98.7471 47.1707 98.7447 47.1735 98.7418 47.1749 98.7404 47.1764 98.7388 47.178 98.7371 47.1788 98.7363 47.1801 98.735 47.1805 98.7346 47.1819 98.7332 47.1832 98.7318 61.6868 112.842ZM75.4993 95.4911 95.7339 95.4911 95.7339 95.4061 75.4993 95.4061 55.2646 95.4061 55.2646 95.4911 75.4993 95.4911ZM75.4993 95.4061 91.687 107.547C93.3141 105.377 92.5226 106.348 93.2616 105.398L77.2893 92.9754 61.317 80.5526C60.7823 81.2401 60.3146 81.8854 60.0132 82.3023 59.6597 82.7912 59.4966 83.0186 59.3116 83.2653L75.4993 95.4061ZM77.2893 92.9754 72.3817 73.3449C71.2801 73.6203 70.0983 73.8803 69.0409 74.0646 68.5198 74.1554 68.103 74.2148 67.7955 74.2498 67.4675 74.2871 67.402 74.2808 67.5521 74.2784L67.8684 94.5106 68.1847 114.743C73.3977 114.661 79.1122 113.377 82.1969 112.606L77.2893 92.9754ZM67.8684 94.5106 76.7619 112.686C77.001 112.569 80.3843 110.908 84.7764 108.395 88.9766 105.992 95.0163 102.294 100.093 98.039L87.095 82.5311 74.097 67.0232C71.806 68.9435 68.244 71.2293 64.6788 73.2692 61.3054 75.1993 58.7592 76.4407 58.9749 76.3351L67.8684 94.5106ZM87.095 82.5311 66.8603 82.5311 66.8603 82.617 87.095 82.617 107.33 82.617 107.33 82.5311 87.095 82.5311ZM87.095 82.617 100.587 97.6967C101.509 96.8718 102.513 96.0898 103.579 95.3619L92.1672 78.6522 80.7556 61.9424C78.3258 63.6018 75.9203 65.4636 73.6026 67.5373L87.095 82.617ZM92.1672 78.6522 92.1673 58.4175C91.2318 58.4175 90.0621 58.3859 88.9791 58.3111 88.4458 58.2743 88.0176 58.2327 87.7058 58.194 87.3615 58.1512 87.3379 58.134 87.5552 58.1827L83.1301 77.9276 78.7051 97.6724C83.5192 98.7513 89.3646 98.8868 92.1672 98.8868L92.1672 78.6522ZM83.1301 77.9276 86.8263 97.8218C87.3699 97.7208 100.81 95.2185 114.835 89.1794L106.832 70.5946 98.8295 52.0097C88.9607 56.2593 79.0162 58.111 79.4339 58.0334L83.1301 77.9276ZM106.832 70.5946 114.706 89.2345C118.778 87.5144 122.609 86.2529 126.137 85.1052L119.877 65.8631 113.618 46.621C110.069 47.7754 104.776 49.4971 98.9586 51.9547L106.832 70.5946ZM119.877 65.8631 126.137 85.1052C133.897 82.5806 140.073 77.9075 144.275 71.2542L127.167 60.4491 110.059 49.6439C110.458 49.0117 111.109 48.2275 112.007 47.5433 112.874 46.8824 113.534 46.6481 113.618 46.6211L119.877 65.8631ZM127.167 60.4491C122.906 40.6683 122.908 40.6678 122.91 40.6673 122.911 40.6672 122.913 40.6667 122.914 40.6664 122.917 40.6658 122.92 40.6652 122.923 40.6646 122.928 40.6634 122.934 40.6622 122.939 40.6611 122.95 40.6588 122.96 40.6567 122.969 40.6547 122.988 40.6507 123.004 40.6473 123.018 40.6444 123.046 40.6385 123.065 40.6348 123.075 40.6328 123.095 40.6289 123.079 40.6322 123.031 40.6409 122.934 40.6586 122.715 40.697 122.396 40.7432 121.743 40.8378 120.764 40.9516 119.628 41.0015L120.517 61.2166 121.406 81.4317C124.148 81.3112 126.495 81.0411 128.197 80.7946 129.056 80.6702 129.772 80.5487 130.316 80.4491 130.589 80.3992 130.82 80.3545 131.006 80.3173 131.099 80.2987 131.181 80.2819 131.252 80.2672 131.287 80.2599 131.32 80.2531 131.349 80.2469 131.364 80.2437 131.378 80.2408 131.391 80.2379 131.398 80.2365 131.404 80.2351 131.411 80.2338 131.414 80.2331 131.417 80.2324 131.42 80.2318 131.421 80.2314 131.424 80.231 131.424 80.2308 131.427 80.2303 131.429 80.2298 127.167 60.4491ZM120.517 61.2166 132.811 77.288C133.006 77.1391 135.276 75.3984 137.87 73.0803 139.162 71.9253 140.745 70.4408 142.268 68.7967 143.578 67.3834 145.804 64.8434 147.516 61.6155L129.639 52.1366 111.762 42.6576C112.229 41.7769 112.62 41.27 112.679 41.1931 112.771 41.074 112.758 41.103 112.586 41.2879 112.228 41.6742 111.653 42.2351 110.902 42.906 109.409 44.2398 108.055 45.2733 108.222 45.1453L120.517 61.2166ZM129.639 52.1366 129.639 31.9019 124.311 31.9019 124.311 52.1366 124.311 72.3712 129.639 72.3712 129.639 52.1366ZM124.311 52.1366C137.931 67.1005 137.934 67.0984 137.936 67.0963 137.937 67.0955 137.939 67.0934 137.941 67.0919 137.944 67.0889 137.948 67.0858 137.951 67.0826 137.958 67.0762 137.966 67.0694 137.973 67.0621 137.989 67.0476 138.007 67.0314 138.026 67.0135 138.065 66.9777 138.112 66.9351 138.164 66.886 138.27 66.7879 138.403 66.6633 138.56 66.5143 138.872 66.217 139.285 65.8173 139.77 65.3317 140.722 64.3766 142.028 63.0104 143.418 61.3768 145.399 59.0501 150.579 52.8095 152.306 44.904L132.538 40.5838 112.77 36.2637C113.193 34.33 113.855 33.4379 113.613 33.8257 113.487 34.0284 113.16 34.489 112.599 35.1483 112.071 35.7688 111.528 36.3396 111.111 36.7579 110.911 36.9591 110.759 37.1052 110.678 37.1822 110.638 37.2202 110.617 37.2398 110.618 37.2391 110.618 37.2387 110.624 37.2331 110.636 37.2221 110.642 37.2167 110.649 37.2098 110.658 37.2016 110.663 37.1974 110.668 37.193 110.673 37.1881 110.676 37.1857 110.679 37.1832 110.681 37.1806 110.683 37.1793 110.685 37.1773 110.686 37.1767 110.688 37.1747 110.69 37.1726 124.311 52.1366ZM132.538 40.5838 152.289 44.9825C153.482 39.6254 154.023 36.2304 154.343 34.5007 154.497 33.6702 154.565 33.3989 154.604 33.2559 154.633 33.1503 154.708 32.8862 154.96 32.2537L136.161 24.7674 117.363 17.2812C115.792 21.2242 115.115 24.076 114.548 27.1417 114.08 29.6753 113.769 31.78 112.788 36.1852L132.538 40.5838ZM136.161 24.7674 121.634 38.8526 128.412 45.8438 142.94 31.7586 157.467 17.6735 150.689 10.6823 136.161 24.7674ZM142.94 31.7586 148.134 51.3151C149.205 51.0308 150.148 50.7105 150.645 50.5401 151.671 50.1877 151.188 50.3462 151.908 50.1014 152.584 49.8715 152.358 49.9865 151.737 50.0921 151.137 50.1942 149.085 50.4885 146.341 49.7883 143.177 48.9807 140.205 47.1255 138.103 44.4833L153.939 31.8866 169.774 19.2898C161.666 9.09715 150.355 9.27636 144.949 10.1961 142.293 10.648 140.048 11.3891 138.872 11.7893 136.928 12.4507 137.539 12.257 137.745 12.2021L142.94 31.7586ZM153.939 31.8866 138.158 44.5523C142.152 49.5278 147.182 52.5475 151.551 54.2659 155.852 55.9576 160.911 56.9433 166.038 56.5334L164.425 36.3631 162.812 16.1928C163.896 16.1062 164.675 16.1922 165.122 16.2664 165.599 16.3457 166.001 16.4623 166.365 16.6053 166.94 16.8315 168.326 17.4851 169.719 19.2208L153.939 31.8866ZM164.425 36.3631 166.935 56.4415C164.151 56.7895 158.859 56.6941 153.713 52.9625 148.497 49.1795 146.664 44.0121 146.129 40.7981L166.088 37.4715 186.047 34.145C185.384 30.1636 183.232 24.3781 177.471 20.2007 171.781 16.0747 165.723 15.8088 161.915 16.2847L164.425 36.3631ZM166.088 37.4715 146.06 40.3562 146.828 45.6853 166.856 42.8006 186.884 39.9159 186.116 34.5868 166.088 37.4715ZM166.856 42.8006 146.803 45.5056C146.797 45.4664 146.653 44.4245 146.926 42.7876 147.233 40.9497 147.96 38.998 149.138 37.2118 150.2 35.602 151.257 34.7035 151.403 34.5789 151.475 34.518 151.461 34.5344 151.191 34.7429 151.04 34.8598 150.466 35.2996 150.028 35.6446L162.55 51.5389 175.073 67.4332C175.338 67.2241 175.448 67.1431 175.954 66.7518 176.341 66.4521 176.956 65.973 177.62 65.4085 178.951 64.2769 181.044 62.3394 182.921 59.4933 187.291 52.8681 187.679 45.809 186.909 40.0956L166.856 42.8006ZM162.55 51.5389 149.91 35.7383C146.038 38.8356 143.63 42.9682 142.485 45.1893 141.083 47.9104 139.115 52.5668 138.88 58.1983L159.097 59.0418 179.314 59.8854C179.253 61.3427 178.975 62.3472 178.836 62.7867 178.684 63.2688 178.539 63.5714 178.458 63.7289 178.379 63.8836 178.242 64.1272 177.983 64.4862 177.85 64.6697 177.613 64.9835 177.26 65.3833 176.965 65.717 176.268 66.4774 175.191 67.3395L162.55 51.5389ZM159.097 59.0418 138.88 58.1876C138.838 59.1872 138.749 61.0838 138.667 63.2024L158.887 63.9793 179.107 64.7562C179.186 62.7045 179.258 61.2078 179.314 59.8961L159.097 59.0418ZM158.887 63.9793 177.957 70.746 178 70.6249 158.93 63.8582 139.86 57.0916 139.817 57.2127 158.887 63.9793ZM158.93 63.8582 138.702 64.3786C138.912 72.547 143.016 85.8464 157.273 89.9744 170.361 93.7636 180.969 86.2929 186.406 80.7236L171.928 66.5877 157.45 52.4519C155.963 53.9744 160.163 48.6797 168.528 51.1016 178.063 53.8624 179.13 62.2511 179.158 63.3379L158.93 63.8582ZM171.928 66.5877 186.364 80.7671C191.001 76.0462 197.238 67.9586 201.912 61.7541 204.403 58.4486 206.736 55.2884 208.548 52.8358 209.467 51.5925 210.229 50.5613 210.834 49.7519 211.135 49.349 211.373 49.0336 211.554 48.7958 211.756 48.5316 211.81 48.4663 211.769 48.5173L196.057 35.7664 180.345 23.0156C178.884 24.8155 173.806 31.8054 169.589 37.4037 164.564 44.0732 159.932 49.925 157.492 52.4084L171.928 66.5877ZM196.057 35.7664 211.768 48.5177C211.173 49.2514 209.96 50.4036 208.016 51.293 206.097 52.1714 204.193 52.462 202.622 52.462L202.622 32.2274 202.622 11.9927C195.284 11.9927 186.858 14.9904 180.346 23.0152L196.057 35.7664ZM202.622 32.2274 202.62 52.462C198.42 52.4614 195.045 50.9335 192.703 49.1357 190.42 47.3827 187.472 44.0703 186.491 38.8882L206.373 35.1268 226.255 31.3653C224.976 24.6061 221.006 19.8441 217.348 17.0357 213.631 14.1827 208.53 11.9935 202.625 11.9927L202.622 32.2274ZM206.373 35.1268 186.491 38.8879C186.38 38.3009 186.292 37.4938 186.33 36.5209 186.369 35.5352 186.531 34.5663 186.789 33.6607L206.245 39.2196 225.701 44.7784C226.956 40.3877 227.107 35.866 226.255 31.3656L206.373 35.1268ZM206.245 39.2196 186.789 33.6606C186.467 34.7895 187.163 31.5526 189.506 28.4892 192.218 24.9421 195.398 23.5078 196.579 23.0614L203.731 41.9901 210.882 60.9187C213.982 59.7478 218.248 57.5248 221.653 53.072 224.688 49.1028 225.683 44.843 225.701 44.7785L206.245 39.2196ZM203.731 41.9901 196.58 23.0611C196.432 23.1169 193.502 24.1146 190.809 25.7387 187.375 27.8095 184.718 30.471 182.609 33.4749L199.169 45.1024 215.729 56.7298C215.451 57.126 214.953 57.7668 214.199 58.4885 213.414 59.2401 212.561 59.8797 211.707 60.3945 210.911 60.8749 210.299 61.1329 210.164 61.1889 210.101 61.2152 210.1 61.2138 210.238 61.1615 210.466 61.0747 210.478 61.0717 210.882 60.919L203.731 41.9901ZM199.169 45.1024 182.609 33.4753C181.451 35.1237 174.381 46.5589 168.36 56.3097 161.99 66.6231 155.791 76.6947 155.762 76.7425L172.994 87.3485 190.227 97.9544C190.253 97.9112 196.439 87.8608 202.792 77.5744 205.969 72.429 209.18 67.2388 211.68 63.2162 214.461 58.7422 215.806 56.6205 215.73 56.7294L199.169 45.1024ZM172.994 87.3485 156.041 76.3021C151.418 83.3968 147.484 85.6411 144.08 87.354 143.044 87.8755 138.02 90.1559 134.813 92.2284 130.211 95.2023 125.049 99.9888 122.329 107.832L141.448 114.461 160.566 121.089C159.509 124.137 157.358 125.844 156.777 126.219 156.749 126.237 157.011 126.069 158.079 125.545 158.68 125.25 160.859 124.215 162.273 123.504 170.284 119.472 180.46 112.956 189.948 98.3949L172.994 87.3485ZM141.448 114.461 160.575 121.061 161.151 119.394 142.023 112.794 122.895 106.194 122.32 107.861 141.448 114.461ZM142.023 112.794 123.355 104.985C117.99 117.812 120.42 128.183 122.186 134.446L141.661 128.956 161.137 123.466C160.565 121.437 160.548 120.973 160.546 120.902 160.546 120.901 160.546 120.907 160.546 120.919 160.546 120.931 160.545 120.946 160.544 120.963 160.541 121 160.537 121.029 160.534 121.044 160.526 121.09 160.542 120.955 160.69 120.602L142.023 112.794ZM141.661 128.956 122.591 135.721C122.607 135.765 124.074 139.902 125.606 144.238 126.372 146.407 127.15 148.614 127.77 150.379 128.08 151.264 128.345 152.023 128.547 152.604 128.775 153.264 128.858 153.51 128.854 153.498L148.098 147.244 167.342 140.99C166.961 139.819 165.225 134.892 163.764 130.758 162.224 126.397 160.749 122.241 160.732 122.191L141.661 128.956ZM148.098 147.244 128.81 153.36C129.052 154.123 129.916 156.986 131.601 159.867 133.524 163.155 137.227 167.732 143.696 170.134L150.741 151.166 157.787 132.197C162.763 134.046 165.422 137.535 166.535 139.438 167.41 140.933 167.698 142.113 167.386 141.128L148.098 147.244ZM150.741 151.166 143.696 170.134C144.369 170.384 143.171 170.009 141.677 169.049 139.672 167.762 137.522 165.728 135.995 162.891L153.811 153.298 171.627 143.704C167.101 135.299 159.219 132.729 157.787 132.197L150.741 151.166ZM153.811 153.298 136.282 163.407C134.064 159.561 132.771 153.776 135.101 147.679 137.54 141.294 142.864 137.478 148.039 136.229L152.787 155.898 157.535 175.568C163.947 174.02 170.102 169.458 172.904 162.124 175.596 155.078 174.196 148.143 171.339 143.189L153.811 153.298ZM152.787 155.898 146.081 136.807C146.104 136.799 143.172 137.829 140.132 138.803L146.308 158.072 152.484 177.341C156.065 176.193 159.416 175.016 159.494 174.989L152.787 155.898ZM146.308 158.072 140.203 138.78C142.591 138.025 146.496 137.488 150.916 139.03 155.205 140.526 157.8 143.225 159.085 144.921 159.722 145.762 160.135 146.479 160.366 146.911 160.597 147.344 160.728 147.65 160.743 147.684 160.752 147.705 160.749 147.698 160.714 147.615 160.702 147.584 160.609 147.36 160.545 147.206 160.437 146.949 160.042 145.993 159.473 144.926L141.618 154.448 123.764 163.97C123.431 163.346 122.679 161.619 123.588 163.724 123.971 164.612 124.99 166.932 126.827 169.358 128.778 171.934 132.207 175.364 137.584 177.24 143.093 179.162 148.34 178.653 152.413 177.364L146.308 158.072ZM141.618 154.448 160.146 146.313C160.118 146.249 151.973 127.701 146.669 115.811L128.19 124.054 109.71 132.296C112.329 138.168 115.663 145.714 118.355 151.82 119.699 154.869 120.879 157.552 121.726 159.477 122.149 160.44 122.489 161.212 122.723 161.746 122.841 162.013 122.932 162.221 122.994 162.362 123.025 162.433 123.049 162.487 123.065 162.525 123.074 162.543 123.08 162.557 123.084 162.567 123.086 162.572 123.088 162.576 123.089 162.579 123.09 162.58 123.09 162.581 123.091 162.582 123.091 162.582 123.091 162.583 123.091 162.583 123.091 162.583 123.091 162.583 123.091 162.583L141.618 154.448ZM128.19 124.054 146.669 115.809C138.371 97.2111 111.405 96.7775 103.168 116.192L121.795 124.096 140.423 131.999C134.573 145.787 115.536 145.354 109.711 132.298L128.19 124.054ZM121.795 124.096 103.179 116.167 92.3936 141.489 111.01 149.418 129.626 157.347 140.412 132.025 121.795 124.096ZM111.01 149.418 92.751 140.697C92.077 142.108 90.9957 144.582 90.4525 147.657 89.898 150.796 89.5673 156.599 93.0567 162.532 96.5996 168.556 101.933 171.076 105.021 172.088 107.944 173.045 110.538 173.226 111.717 173.289L112.8 153.084 113.883 132.878C114.005 132.885 114.389 132.908 114.941 132.99 115.473 133.068 116.431 133.24 117.622 133.63 119.938 134.389 124.717 136.535 127.94 142.016 131.11 147.405 130.694 152.494 130.305 154.698 130.097 155.873 129.815 156.746 129.642 157.227 129.463 157.726 129.314 158.045 129.269 158.139L111.01 149.418ZM112.8 153.084 111.367 173.268 117.378 173.694 118.811 153.511 120.244 133.327 114.233 132.9 112.8 153.084ZM118.811 153.511 118.811 173.745C118.804 173.745 117.839 173.757 116.359 173.382 114.764 172.978 112.324 172.058 109.895 170.007 104.662 165.591 104.174 160.083 104.146 159.822L124.268 157.688 144.39 155.554C144.064 152.48 142.871 144.883 135.998 139.082 129.598 133.68 122.268 133.276 118.811 133.276L118.811 153.511ZM124.268 157.688 104.149 159.855C103.512 153.932 106.192 148.781 109.704 145.852 111.221 144.587 112.614 143.949 113.474 143.639 114.343 143.327 114.888 143.269 114.955 143.263L116.936 163.4 118.917 183.538C123.984 183.039 130.263 181.402 135.624 176.931 141.576 171.967 145.322 164.215 144.386 155.522L124.268 157.688ZM116.936 163.4 114.772 143.282C98.9828 144.979 79.051 140.978 66.082 134.838L57.4241 153.127 48.7661 171.416C67.855 180.452 95.2429 186.084 119.099 183.519L116.936 163.4ZM57.4241 153.127 66.0821 134.838C64.5441 134.11 62.0974 131.791 59.8163 126.412 57.6415 121.283 56.8767 116.265 56.7901 115.187L36.6204 116.806 16.4507 118.426C16.8332 123.189 18.456 132.537 22.5587 142.211 26.5549 151.635 34.2756 164.556 48.7661 171.416L57.4241 153.127ZM36.6204 116.806 56.7834 115.106C56.57 112.575 56.6158 109.189 56.5718 104.088 56.5526 101.861 56.509 99.2992 56.3492 96.8851 56.2136 94.8361 55.9148 91.306 54.8392 87.8365L35.512 93.828 16.1847 99.8194C15.7699 98.4814 15.8655 98.0048 15.9683 99.5582 16.047 100.747 16.0859 102.337 16.104 104.437 16.1347 107.989 16.0739 113.961 16.4573 118.507L36.6204 116.806ZM35.512 93.828C23.8493 110.363 23.8428 110.359 23.8363 110.354 23.8342 110.353 23.8278 110.348 23.8235 110.345 23.8149 110.339 23.8064 110.333 23.7979 110.327 23.7809 110.315 23.764 110.303 23.7473 110.291 23.7138 110.267 23.6808 110.243 23.6483 110.22 23.5833 110.173 23.5201 110.126 23.4587 110.081 23.336 109.989 23.2195 109.9 23.1086 109.812 22.8879 109.638 22.682 109.464 22.4877 109.289 22.1133 108.951 21.7108 108.543 21.311 108.034 20.5536 107.07 19.325 105.108 19.0678 102.25L39.2209 100.436 59.3741 98.6226C58.7332 91.5013 55.6502 86.2356 53.1342 83.033 51.8551 81.4049 50.5973 80.1436 49.5874 79.233 49.0754 78.7713 48.6066 78.3815 48.2026 78.0622 48 77.902 47.8117 77.758 47.6401 77.6302 47.5542 77.5662 47.4723 77.5061 47.3947 77.4499 47.3559 77.4217 47.3182 77.3946 47.2815 77.3683 47.2631 77.3552 47.2451 77.3424 47.2273 77.3297 47.2184 77.3234 47.2095 77.3171 47.2008 77.3109 47.1964 77.3078 47.1898 77.3032 47.1877 77.3017 47.1812 77.2971 47.1747 77.2925 35.512 93.828ZM39.2209 100.436C58.8189 105.472 58.8197 105.469 58.8206 105.466 58.8209 105.465 58.8218 105.461 58.8224 105.459 58.8237 105.454 58.825 105.449 58.8264 105.443 58.8291 105.432 58.8322 105.42 58.8356 105.407 58.8423 105.381 58.8501 105.35 58.859 105.314 58.8768 105.243 58.8989 105.155 58.9249 105.049 58.9769 104.837 59.0446 104.556 59.1246 104.211 59.2845 103.524 59.4953 102.578 59.7297 101.424 60.1952 99.1329 60.7718 95.9354 61.2234 92.2508 62.0471 85.53 62.8073 74.6335 59.9859 64.5471L40.4993 69.9979 21.0126 75.4487C21.6016 77.5545 21.7227 81.8772 21.0547 87.3276 20.7604 89.7286 20.3779 91.8547 20.0708 93.3658 19.919 94.113 19.7901 94.688 19.7069 95.0458 19.6654 95.2242 19.6357 95.3469 19.6206 95.4083 19.6131 95.4389 19.6093 95.4541 19.6096 95.453 19.6097 95.4525 19.6109 95.4479 19.6131 95.4391 19.6142 95.4348 19.6156 95.4293 19.6172 95.4229 19.6181 95.4196 19.619 95.4161 19.6199 95.4124 19.6204 95.4105 19.6212 95.4075 19.6214 95.4065 19.6222 95.4035 19.623 95.4003 39.2209 100.436ZM40.4993 69.9979C32.4197 88.5495 32.4149 88.5474 32.4101 88.5453 32.4085 88.5446 32.4037 88.5425 32.4005 88.5411 32.3941 88.5383 32.3877 88.5355 32.3814 88.5327 32.3687 88.5272 32.3561 88.5217 32.3437 88.5162 32.3188 88.5052 32.2943 88.4944 32.2703 88.4837 32.2222 88.4622 32.1759 88.4413 32.1311 88.4209 32.0416 88.3801 31.9582 88.3411 31.8803 88.3038 31.7251 88.2295 31.5884 88.1604 31.4667 88.0959 31.2305 87.9707 31.0177 87.8452 30.8138 87.7089 30.4976 87.4975 29.7627 86.9721 28.9724 85.9361L45.0608 73.6639 61.1491 61.3918C58.4406 57.8409 55.4249 55.4824 53.3075 54.0667 52.203 53.3283 51.2096 52.7578 50.4178 52.3382 50.0183 52.1264 49.6602 51.9478 49.3529 51.8008 49.199 51.7271 49.0569 51.6609 48.9277 51.602 48.8631 51.5725 48.8017 51.5448 48.7435 51.5189 48.7144 51.5059 48.6862 51.4934 48.6587 51.4813 48.645 51.4752 48.6315 51.4693 48.6181 51.4635 48.6115 51.4606 48.6049 51.4577 48.5983 51.4548 48.595 51.4534 48.5902 51.4512 48.5885 51.4505 48.5837 51.4484 48.5788 51.4463 40.4993 69.9979ZM45.0608 73.6639 65.2734 74.6077C65.3164 73.6866 65.5736 67.0109 63.9405 58.4613 62.3605 50.1897 58.5785 37.8509 48.8233 27.8813L34.3606 42.033 19.8979 56.1847C21.7499 58.0774 23.3204 61.502 24.1899 66.0542 25.0063 70.3284 24.81 73.537 24.8482 72.7201L45.0608 73.6639ZM34.3606 42.033C33.9644 62.2638 33.9606 62.2637 33.9568 62.2637 33.9556 62.2636 33.9518 62.2636 33.9494 62.2635 33.9444 62.2634 33.9395 62.2633 33.9347 62.2632 33.925 62.263 33.9156 62.2628 33.9063 62.2626 33.8879 62.2622 33.8703 62.2617 33.8535 62.2613 33.8201 62.2604 33.7899 62.2596 33.763 62.2587 33.7093 62.257 33.6682 62.2553 33.6387 62.254 33.5803 62.2513 33.5651 62.2499 33.5857 62.2514 33.6343 62.2551 33.7893 62.2686 33.9999 62.3005 34.5715 62.3871 34.7444 62.4839 34.5115 62.3812L42.6741 43.866 50.8367 25.3509C46.6392 23.5003 42.6553 22.6807 40.0613 22.2877 38.6891 22.0798 37.5091 21.9629 36.6184 21.8959 36.1693 21.8622 35.7834 21.8404 35.4717 21.8262 35.3155 21.8192 35.1771 21.814 35.0578 21.8101 34.9981 21.8082 34.943 21.8067 34.8928 21.8054 34.8677 21.8047 34.8439 21.8042 34.8212 21.8036 34.8098 21.8034 34.7988 21.8031 34.7881 21.8029 34.7827 21.8028 34.7774 21.8027 34.7722 21.8026 34.7696 21.8025 34.7658 21.8025 34.7645 21.8024 34.7606 21.8024 34.7568 21.8023 34.3606 42.033ZM42.6741 43.866C60.0464 33.491 60.0433 33.4858 60.0402 33.4805 60.0391 33.4787 60.0359 33.4734 60.0338 33.4698 60.0294 33.4625 60.0249 33.4551 60.0203 33.4474 60.0111 33.4321 60.0014 33.4159 59.9912 33.399 59.9708 33.3652 59.9484 33.3283 59.924 33.2883 59.8751 33.2083 59.8183 33.116 59.7534 33.0121 59.6237 32.8042 59.4615 32.5492 59.267 32.2517 58.8784 31.6573 58.3576 30.8891 57.7045 29.9857 56.4038 28.1867 54.5462 25.8072 52.1259 23.176 47.3575 17.9919 39.9792 11.3674 29.909 6.52884L21.1458 24.7674 12.3825 43.006C16.5081 44.9883 19.8939 47.913 22.3407 50.5731 23.5281 51.864 24.3908 52.9802 24.9086 53.6964 25.1648 54.0507 25.3277 54.2949 25.3956 54.3987 25.4293 54.4502 25.4385 54.4656 25.4231 54.4409 25.4154 54.4286 25.4015 54.4061 25.3812 54.373 25.3711 54.3564 25.3595 54.3372 25.3462 54.3152 25.3396 54.3042 25.3326 54.2926 25.3251 54.2802 25.3214 54.2741 25.3176 54.2677 25.3137 54.2612 25.3118 54.2579 25.3088 54.2529 25.3078 54.2513 25.3048 54.2462 25.3017 54.2411 42.6741 43.866Z" fill="#78A9FF" mask="url(#path-1-outside-1_2138_7750)"/><path d="M158.78 63.519C158.78 70.8514 164.749 73.7929 171.783 66.5884 178.859 59.3839 193.524 38.7083 195.911 35.7668 198.298 32.8253 200.771 32.2285 202.476 32.2285 204.181 32.2285 205.929 33.5501 206.228 35.1274 206.526 36.7047 206.441 38.0262 206.1 39.2199 205.759 40.4135 205.503 41.2661 203.585 41.9908 201.666 42.7155 200.43 43.0992 199.023 45.1028 197.616 47.1064 172.848 87.3492 172.848 87.3492 158.738 109.005 144.627 104.87 141.302 114.462" fill="url(#paint0_linear_2138_7750)"/><path d="M162.404 51.5401C161.338 52.3927 159.079 55.9737 158.951 59.043 158.823 62.0698 158.482 68.8053 158.482 76.5214 158.482 88.7562 153.75 95.0655 146.119 105.51 138.488 115.912 139.725 122.605 141.515 128.956 141.515 128.956 147.398 145.54 147.952 147.245 148.507 148.993 149.103 150.613 150.595 151.167 152.088 151.721 153.068 152.19 153.665 153.298 154.304 154.407 153.878 155.6 152.642 155.899 152.642 155.899 149.487 157.007 146.162 158.073 142.794 159.139 142.155 155.728 141.473 154.449 141.473 154.449 133.33 135.905 128.044 124.054 126.808 121.283 122.843 121.283 121.65 124.097L110.864 149.419C109.5 152.275 110.267 152.957 112.655 153.085L118.665 153.511C122.715 153.511 123.824 154.876 124.122 157.689 124.421 160.46 121.991 162.89 116.79 163.402 96.9668 165.533 73.307 160.716 57.2781 153.128 41.2492 145.54 36.9435 122.647 36.4746 116.807 35.8778 109.73 36.6879 98.0922 35.3663 93.8292 35.3663 93.8292 38.6915 96.1739 39.0751 100.437 39.0751 100.437 43.7644 82.1912 40.354 69.999 40.354 69.999 42.9971 71.15 44.9154 73.6652 44.9154 73.6652 45.8532 53.9274 34.2152 42.0336 34.2152 42.0336 38.5635 42.1189 42.5281 43.8667 42.5281 43.8667 35.1958 31.5893 21 24.7684 61.2002 8.56901 82.8562 47.9166 65.4632 79.8892 48.1127 111.819 54.5498 125.972 56.6387 131.898 57.875 135.351 63.1611 135.82 63.5874 130.448 64.3548 122.903 65.8469 116.295 67.8931 110.455L61.5411 112.842C61.5411 112.842 69.172 104.998 75.3534 95.4918L75.3534 95.4065C75.9928 94.5539 76.5469 93.7439 77.1438 92.9766 74.2449 93.7013 70.4509 94.4687 67.7226 94.5113 67.7226 94.5113 79.5738 88.7136 86.9488 82.5322L86.9488 82.6175C88.5687 81.1681 90.2738 79.8465 92.0216 78.6529 89.3786 78.6529 85.4566 78.4824 82.9841 77.9282 82.9841 77.9282 94.7073 75.754 106.686 70.5958 111.631 68.5069 116.193 67.0149 119.731 65.8639 123.269 64.7128 125.486 62.8798 127.021 60.4498 127.021 60.4498 124.25 61.0467 120.371 61.2172 120.371 61.2172 127.618 55.6753 129.494 52.137L124.165 52.137C124.165 52.137 131.284 45.6572 132.392 40.5842 134.566 30.8219 134.098 29.5856 136.016 24.7684L142.794 31.7598C145.522 31.0351 150.809 28.1362 153.793 31.8877 156.393 35.1276 161.082 36.6196 164.28 36.3638 165.303 36.2359 165.814 36.7049 165.942 37.4722L166.71 42.801C167.434 48.1724 165.218 49.3234 162.404 51.5401Z" fill="url(#paint1_linear_2138_7750)"/><path d="M68.5325 149.206C58.8981 148.183 53.1856 142.684 49.5621 135.65 45.9385 128.616 40.6098 112.587 51.8641 86.8386 60.0065 68.2092 63.4595 47.9599 46.4075 35.1709" stroke="#E0E0E0" stroke-width="3.19726" stroke-linecap="round" stroke-miterlimit="10"/><path d="M105.621 82.5723C85.1156 92.4624 71.9856 113.692 69.6409 137.352L68.3621 151.036" stroke="#E0E0E0" stroke-width="3.19726" stroke-linecap="round" stroke-miterlimit="10"/><path d="M89.5491 94.7656 95.1336 105.466" stroke="#E0E0E0" stroke-width="3.19726" stroke-linecap="round" stroke-miterlimit="10"/><path d="M95.5601 89.7793 104.214 106.448" stroke="#E0E0E0" stroke-width="3.19726" stroke-linecap="round" stroke-miterlimit="10"/><path d="M102.764 86.1992 112.271 104.53" stroke="#E0E0E0" stroke-width="3.19726" stroke-linecap="round" stroke-miterlimit="10"/><path d="M88.9095 156.109C97.8192 158.156 107.411 158.752 117.472 158.241" stroke="#E0E0E0" stroke-width="3.19726" stroke-linecap="round" stroke-miterlimit="10"/><path d="M71.6873 149.208 110.609 117.064" stroke="#E0E0E0" stroke-width="3.19726" stroke-linecap="round" stroke-miterlimit="10"/><path d="M108.69 122.052 96.5831 154.365" stroke="#E0E0E0" stroke-width="3.19726" stroke-linecap="round" stroke-miterlimit="10"/><path d="M82.9844 101.632C92.0646 108.112 105.323 109.305 118.069 104.147" stroke="#E0E0E0" stroke-width="3.19726" stroke-linecap="round" stroke-miterlimit="10"/></svg>