<svg viewBox="0 0 32 32" xmlns="http://www.w3.org/2000/svg" xmlns:xlink="http://www.w3.org/1999/xlink" id="Layer_1" xml:space="preserve" overflow="hidden"><path d="M16 31.36C7.53 31.36 0.64 24.47 0.64 16 0.64 12.958 1.529 10.12 3.06 7.731 3.091 7.651 3.143 7.563 3.233 7.468 5.992 3.354 10.685 0.64 16 0.64 24.47 0.64 31.36 7.53 31.36 16 31.36 19.043 30.47 21.882 28.938 24.271 28.908 24.35 28.856 24.437 28.767 24.531 26.009 28.646 21.315 31.36 16 31.36ZM4.648 25.235C7.335 28.531 11.426 30.64 16 30.64 20.562 30.64 24.643 28.543 27.33 25.262 26.487 25.524 25.215 25.782 23.293 25.994 23.076 26.781 22.355 27.36 21.5 27.36 20.748 27.36 20.099 26.911 19.806 26.267 18.578 26.329 17.299 26.36 16 26.36 12.73 26.36 7.337 26.099 4.648 25.235ZM21.5 24.36C20.871 24.36 20.36 24.871 20.36 25.5 20.36 26.129 20.871 26.64 21.5 26.64 22.129 26.64 22.64 26.129 22.64 25.5 22.64 24.871 22.129 24.36 21.5 24.36ZM3.834 24.136C4.522 24.728 8.702 25.64 16 25.64 17.241 25.64 18.464 25.612 19.641 25.555 19.641 25.537 19.64 25.519 19.64 25.5 19.64 24.892 19.934 24.351 20.387 24.011L19.44 22.433C18.384 22.386 17.236 22.36 16 22.36 8.199 22.36 3.96 23.402 3.741 23.996 3.772 24.042 3.803 24.089 3.834 24.136ZM21.5 23.64C22.445 23.64 23.229 24.35 23.345 25.264 26.784 24.87 27.967 24.317 28.212 24.067 28.229 24.042 28.245 24.017 28.262 23.992 28.12 23.531 25.39 22.766 20.306 22.477L21.038 23.699C21.186 23.66 21.341 23.64 21.5 23.64ZM19.865 21.743C23.478 21.931 27.461 22.404 28.636 23.387 29.778 21.442 30.483 19.211 30.616 16.83 28.992 17.649 24.996 18.038 21.517 18.221L21.48 17.502C27.746 17.172 30.412 16.399 30.638 15.982 30.638 15.977 30.638 15.971 30.638 15.965 30.278 15.336 24.889 14.36 16 14.36 15.812 14.36 15.624 14.36 15.437 14.361L19.865 21.743ZM1.383 16.829C1.516 19.21 2.221 21.441 3.363 23.386 4.998 22.022 12.048 21.64 16 21.64 16.878 21.64 17.91 21.66 19.002 21.703L16.994 18.356C16.665 18.358 16.334 18.36 16 18.36 15.458 18.36 4.382 18.34 1.383 16.829ZM1.36 16.034C1.722 16.664 7.111 17.64 16 17.64 16.188 17.64 16.376 17.64 16.563 17.639L12.134 10.257C8.521 10.069 4.54 9.596 3.363 8.614 2.222 10.559 1.517 12.789 1.383 15.17 3.007 14.35 7.003 13.962 10.481 13.78L10.519 14.499C4.253 14.829 1.587 15.602 1.36 16.018 1.36 16.023 1.36 16.029 1.36 16.034ZM16 13.64C16.542 13.64 27.618 13.66 30.617 15.171 30.483 12.789 29.778 10.559 28.637 8.613 27.003 9.978 19.952 10.36 16 10.36 15.122 10.36 14.089 10.341 12.998 10.297L15.006 13.645C15.335 13.641 15.666 13.64 16 13.64ZM12.561 9.567C13.616 9.614 14.763 9.64 16 9.64 23.804 9.64 28.042 8.597 28.259 8.004 28.229 7.958 28.197 7.911 28.167 7.866 27.481 7.273 23.301 6.36 16 6.36 14.758 6.36 13.536 6.389 12.359 6.445 12.359 6.464 12.359 6.482 12.359 6.5 12.359 7.108 12.066 7.649 11.612 7.989L12.561 9.567ZM3.738 8.009C3.881 8.47 6.611 9.234 11.694 9.524L10.961 8.302C10.814 8.34 10.659 8.36 10.5 8.36 9.554 8.36 8.771 7.651 8.655 6.736 5.221 7.129 4.037 7.682 3.789 7.933 3.771 7.958 3.755 7.983 3.738 8.009ZM10.5 5.36C9.872 5.36 9.36 5.872 9.36 6.5 9.36 7.128 9.872 7.64 10.5 7.64 11.128 7.64 11.64 7.128 11.64 6.5 11.64 5.872 11.128 5.36 10.5 5.36ZM16 5.64C19.271 5.64 24.663 5.902 27.352 6.765 24.665 3.469 20.574 1.36 16 1.36 11.438 1.36 7.357 3.457 4.67 6.738 5.513 6.477 6.785 6.218 8.707 6.005 8.924 5.219 9.646 4.64 10.5 4.64 11.252 4.64 11.901 5.088 12.194 5.732 13.422 5.671 14.701 5.64 16 5.64Z" id="qiskit_00000020398528084240166800000015292267927476561306_"/><rect x="0" y="0" width="32" height="32" id="_Transparent_Rectangle" fill="none"/></svg>