<svg width="200" height="200" xmlns="http://www.w3.org/2000/svg" xmlns:xlink="http://www.w3.org/1999/xlink" overflow="hidden"><g transform="translate(-60 -1061)"><g><g><g><g><path d="M159.505 1230.39C198.103 1230.39 229.393 1199.1 229.393 1160.5 229.393 1121.91 198.103 1090.62 159.505 1090.62 120.906 1090.62 89.6151 1121.91 89.6151 1160.5 89.6151 1199.1 120.906 1230.39 159.505 1230.39Z" fill="#FF7EB6"/><path d="M134.309 1107.03 132.049 1108.34C130.54 1109.22 129.292 1108.66 128.506 1107.31L128.09 1106.59C125.125 1107.81 122.458 1105.96 120.089 1101.87 117.504 1097.41 117.432 1093.98 120.722 1092.08 124.013 1090.17 126.951 1091.94 129.527 1096.41 131.896 1100.5 132.149 1103.75 129.636 1105.69L130.621 1107.39 133.541 1105.7 134.309 1107.03ZM128.451 1098.52 127.159 1096.28C125.577 1093.54 123.696 1092.26 121.545 1093.5 119.402 1094.75 119.574 1097.02 121.165 1099.76L122.458 1101.99C124.04 1104.73 125.929 1106.01 128.072 1104.77 130.214 1103.53 130.042 1101.26 128.451 1098.52Z" fill="#FFFFFF"/><path d="M135.728 1102.29 135.258 1100.85 138.956 1099.63 134.969 1087.52 131.272 1088.74 130.802 1087.31 139.968 1084.29 140.438 1085.73 136.741 1086.95 140.728 1099.05 144.425 1097.83 144.895 1099.27 135.728 1102.29Z" fill="#FFFFFF"/><path d="M146.712 1096.24 147.942 1094.96C149.307 1096.36 150.663 1096.96 152.525 1096.75 154.767 1096.5 155.87 1095.27 155.652 1093.38 155.482 1091.85 154.613 1091.13 152.471 1091L150.708 1090.9C147.607 1090.72 146.459 1089.06 146.233 1087.08 145.917 1084.21 147.77 1082.5 150.925 1082.15 153.393 1081.87 155.174 1082.58 156.385 1083.97L155.201 1085.26C154.207 1084.22 153.013 1083.56 151.079 1083.76 148.99 1084 147.914 1085.05 148.113 1086.82 148.267 1088.21 149.081 1089.03 151.323 1089.17L153.022 1089.28C156.123 1089.48 157.317 1091.08 157.542 1093.12 157.868 1096.01 156.087 1097.99 152.642 1098.37 149.867 1098.68 148.05 1097.72 146.712 1096.24Z" fill="#FFFFFF"/><path d="M165.362 1090.24 162.886 1092.69 162.406 1097.72 160.535 1097.55 162.018 1081.85 163.889 1082.02 163.111 1090.21 163.175 1090.21 165.471 1087.8 170.578 1082.65 172.829 1082.86 166.754 1088.96 171.501 1098.58 169.322 1098.37 165.354 1090.24 165.362 1090.24Z" fill="#FFFFFF"/><path d="M173.128 1099.04 173.579 1097.59 177.295 1098.75 181.083 1086.58 177.367 1085.43 177.819 1083.98 187.04 1086.85 186.588 1088.29 182.872 1087.14 179.085 1099.3 182.8 1100.46 182.348 1101.91 173.128 1099.04Z" fill="#FFFFFF"/><path d="M197.048 1093.58 190.169 1105.92 188.532 1105.01 195.412 1092.67 190.864 1090.13 191.669 1088.69 202.409 1094.68 201.604 1096.11 197.057 1093.57 197.048 1093.58Z" fill="#FFFFFF"/><path d="M100.734 1211.67 111.971 1200.6 118.977 1207.71 117.802 1208.87 112.134 1203.11 108.355 1206.84 113.544 1212.11 112.369 1213.26 107.18 1207.99 102.081 1213.03 100.743 1211.67 100.734 1211.67Z" fill="#FFFFFF"/><path d="M119.981 1227.62 121.346 1223.12 116.708 1220.05 113.11 1223.06 111.465 1221.97 124.23 1211.5 126.336 1212.89 121.68 1228.73 119.999 1227.62 119.981 1227.62ZM124.23 1213.92 124.058 1213.81 117.992 1218.94 121.87 1221.51 124.221 1213.93 124.23 1213.92Z" fill="#FFFFFF"/><path d="M127.086 1231.32 132.854 1216.63 134.626 1217.32 129.464 1230.48 136.461 1233.22 135.855 1234.76 127.086 1231.32Z" fill="#FFFFFF"/><path d="M142.446 1236.43 145.013 1220.87 146.894 1221.17 144.589 1235.11 152.001 1236.34 151.73 1237.97 142.437 1236.43 142.446 1236.43Z" fill="#FFFFFF"/><path d="M173.905 1236.88 169.991 1221.6 179.664 1219.11 180.07 1220.71 172.242 1222.72 173.561 1227.86 180.73 1226.02 181.137 1227.62 173.968 1229.46 175.749 1236.41 173.905 1236.88Z" fill="#FFFFFF"/><path d="M189.382 1232.19 182.385 1218.05 191.135 1213.72 191.868 1215.2 184.826 1218.68 187.176 1223.44 193.974 1220.08 194.706 1221.56 187.908 1224.93 190.358 1229.87 197.4 1226.39 198.133 1227.87 189.382 1232.2 189.382 1232.19Z" fill="#FFFFFF"/><path d="M201.206 1223.06 201.595 1221.32C203.512 1221.77 204.985 1221.55 206.486 1220.37 208.285 1218.95 208.583 1217.3 207.407 1215.81 206.458 1214.61 205.328 1214.46 203.412 1215.51L201.839 1216.38C199.073 1217.9 197.201 1217.11 195.972 1215.54 194.182 1213.27 194.878 1210.82 197.41 1208.82 199.389 1207.26 201.306 1206.91 203.077 1207.43L202.743 1209.17C201.333 1208.81 199.959 1208.9 198.404 1210.12 196.732 1211.44 196.361 1212.91 197.464 1214.31 198.331 1215.41 199.461 1215.67 201.459 1214.58L202.978 1213.76C205.753 1212.26 207.625 1212.97 208.89 1214.59 210.698 1216.88 210.201 1219.52 207.435 1221.7 205.211 1223.45 203.141 1223.61 201.206 1223.07L201.206 1223.06Z" fill="#FFFFFF"/><path d="M208.664 1200.4 219.485 1209.47 218.265 1210.94 207.444 1201.86 204.045 1205.92 202.779 1204.86 210.798 1195.29 212.063 1196.35 208.664 1200.41 208.664 1200.4Z" fill="#FFFFFF"/><path d="M159.505 1195.18C140.385 1195.18 124.827 1179.62 124.827 1160.5 124.827 1141.38 140.385 1125.83 159.505 1125.83 178.625 1125.83 194.182 1141.38 194.182 1160.5 194.182 1179.62 178.625 1195.18 159.505 1195.18ZM159.505 1127.27C141.18 1127.27 126.273 1142.18 126.273 1160.5 126.273 1178.83 141.18 1193.74 159.505 1193.74 177.829 1193.74 192.736 1178.83 192.736 1160.5 192.736 1142.18 177.829 1127.27 159.505 1127.27Z" fill="#FFFFFF"/><path d="M171.988 1165.44 171.916 1163.99C186.462 1163.22 192.41 1161.44 192.736 1160.48 192.256 1159.15 180.74 1156.7 159.504 1156.7 158.591 1156.7 157.696 1156.7 156.801 1156.72L156.783 1155.27C157.678 1155.26 158.582 1155.25 159.495 1155.25 168.599 1155.25 177.159 1155.72 183.605 1156.58 194.182 1157.99 194.182 1159.75 194.182 1160.5 194.182 1163.78 180.279 1165 171.988 1165.43L171.988 1165.44Z" fill="#FFFFFF"/><path d="M159.505 1165.76C150.401 1165.76 141.84 1165.29 135.394 1164.43 124.817 1163.02 124.817 1161.26 124.817 1160.51 124.817 1157.23 138.721 1156.01 147.011 1155.58L147.083 1157.02C132.538 1157.79 126.589 1159.58 126.264 1160.54 126.743 1161.87 138.26 1164.32 159.495 1164.32 160.409 1164.32 161.303 1164.32 162.199 1164.3L162.217 1165.75C161.321 1165.76 160.417 1165.77 159.505 1165.77L159.505 1165.76Z" fill="#FFFFFF"/><path d="M149.262 1142.03 148.021 1142.77 170.205 1179.75 171.445 1179.01 149.262 1142.03Z" fill="#FFFFFF"/><path d="M147.056 1143.11C144.787 1143.11 142.934 1141.27 142.934 1138.99 142.934 1136.71 144.778 1134.87 147.056 1134.87 149.334 1134.87 151.178 1136.71 151.178 1138.99 151.178 1141.27 149.334 1143.11 147.056 1143.11ZM147.056 1136.32C145.583 1136.32 144.38 1137.53 144.38 1139 144.38 1140.47 145.583 1141.68 147.056 1141.68 148.53 1141.68 149.732 1140.47 149.732 1139 149.732 1137.53 148.53 1136.32 147.056 1136.32Z" fill="#FFFFFF"/><path d="M171.953 1186.12C169.683 1186.12 167.83 1184.28 167.83 1182 167.83 1179.72 169.674 1177.88 171.953 1177.88 174.231 1177.88 176.074 1179.72 176.074 1182 176.074 1184.28 174.231 1186.12 171.953 1186.12ZM171.953 1179.33C170.479 1179.33 169.276 1180.54 169.276 1182.01 169.276 1183.48 170.479 1184.69 171.953 1184.69 173.425 1184.69 174.628 1183.48 174.628 1182.01 174.628 1180.54 173.425 1179.33 171.953 1179.33Z" fill="#FFFFFF"/><path d="M159.505 1183.86C151.839 1183.86 144.625 1183.39 139.192 1182.53 131.146 1181.25 130.215 1179.68 130.215 1178.61 130.215 1177.55 131.146 1175.97 139.192 1174.7 144.625 1173.84 151.839 1173.36 159.505 1173.36 167.171 1173.36 174.385 1173.83 179.818 1174.7 187.864 1175.97 188.795 1177.55 188.795 1178.61 188.795 1180.66 184.292 1182.16 175.406 1183.11L175.253 1181.67C185.296 1180.61 187.349 1178.99 187.349 1178.61 187.349 1177.32 177.522 1174.81 159.496 1174.81 141.47 1174.81 131.652 1177.32 131.652 1178.61 131.652 1179.9 141.479 1182.42 159.496 1182.42 162.624 1182.42 165.697 1182.34 168.626 1182.18L168.707 1183.63C165.752 1183.79 162.651 1183.86 159.496 1183.86L159.505 1183.86Z" fill="#FFFFFF"/><path d="M159.505 1147.64C151.839 1147.64 144.625 1147.17 139.192 1146.3 131.146 1145.03 130.215 1143.46 130.215 1142.39 130.215 1140.35 134.717 1138.84 143.585 1137.9L143.739 1139.34C133.713 1140.4 131.661 1142.02 131.661 1142.39 131.661 1143.68 141.488 1146.19 159.505 1146.19 177.522 1146.19 187.357 1143.68 187.357 1142.39 187.357 1141.1 177.531 1138.58 159.505 1138.58 156.377 1138.58 153.303 1138.66 150.374 1138.82L150.293 1137.37C153.249 1137.21 156.35 1137.14 159.505 1137.14 167.171 1137.14 174.385 1137.61 179.818 1138.47 187.864 1139.75 188.795 1141.32 188.795 1142.39 188.795 1143.46 187.864 1145.03 179.818 1146.3 174.385 1147.16 167.171 1147.64 159.505 1147.64Z" fill="#FFFFFF"/><path d="M219.015 1166.7 212.01 1166.7 212.01 1165.15 215.327 1162.27C216.358 1161.35 216.973 1160.55 216.973 1159.64L216.973 1159.47C216.973 1158.42 216.358 1157.83 215.273 1157.83 214.188 1157.83 213.582 1158.5 213.311 1159.42L211.883 1158.89C212.289 1157.61 213.32 1156.43 215.39 1156.43 217.461 1156.43 218.69 1157.67 218.69 1159.39 218.69 1161 217.66 1162.1 216.231 1163.27L213.773 1165.32 219.024 1165.32 219.024 1166.7 219.015 1166.7Z" fill="#FFFFFF"/><path d="M220.742 1161.64C220.742 1158.34 221.89 1156.42 224.467 1156.42 227.044 1156.42 228.192 1158.34 228.192 1161.64 228.192 1164.94 227.044 1166.87 224.467 1166.87 221.89 1166.87 220.742 1164.94 220.742 1161.64ZM226.51 1162.51 226.51 1160.78C226.51 1158.92 225.941 1157.75 224.458 1157.75 222.975 1157.75 222.406 1158.92 222.406 1160.78L222.406 1162.51C222.406 1164.36 222.975 1165.54 224.458 1165.54 225.941 1165.54 226.51 1164.36 226.51 1162.51ZM223.563 1161.81 223.563 1161.49C223.563 1161.1 223.798 1160.79 224.467 1160.79 225.136 1160.79 225.371 1161.1 225.371 1161.49L225.371 1161.81C225.371 1162.19 225.136 1162.5 224.467 1162.5 223.798 1162.5 223.563 1162.19 223.563 1161.81Z" fill="#FFFFFF"/><path d="M237.033 1166.7 230.027 1166.7 230.027 1165.15 233.344 1162.27C234.375 1161.35 234.99 1160.55 234.99 1159.64L234.99 1159.47C234.99 1158.42 234.375 1157.83 233.29 1157.83 232.205 1157.83 231.6 1158.5 231.329 1159.42L229.9 1158.89C230.306 1157.61 231.337 1156.43 233.408 1156.43 235.478 1156.43 236.707 1157.67 236.707 1159.39 236.707 1161 235.677 1162.1 234.248 1163.27L231.79 1165.32 237.041 1165.32 237.041 1166.7 237.033 1166.7Z" fill="#FFFFFF"/><path d="M243.387 1166.7 243.387 1164.73 238.56 1164.73 238.56 1163.33 242.809 1156.59 244.942 1156.59 244.942 1163.45 246.371 1163.45 246.371 1164.73 244.942 1164.73 244.942 1166.7 243.387 1166.7ZM239.934 1163.45 243.378 1163.45 243.378 1158.08 243.287 1158.08 239.925 1163.45 239.934 1163.45Z" fill="#FFFFFF"/><path d="M81.0001 1166.7 73.9941 1166.7 73.9941 1165.15 77.3118 1162.27C78.3424 1161.35 78.9571 1160.55 78.9571 1159.64L78.9571 1159.47C78.9571 1158.42 78.3424 1157.83 77.2575 1157.83 76.1728 1157.83 75.5671 1158.5 75.2959 1159.42L73.8675 1158.89C74.2743 1157.61 75.3049 1156.43 77.375 1156.43 79.4453 1156.43 80.6747 1157.67 80.6747 1159.39 80.6747 1161 79.6441 1162.1 78.2158 1163.27L75.7569 1165.32 81.0092 1165.32 81.0092 1166.7 81.0001 1166.7Z" fill="#FFFFFF"/><path d="M82.7272 1161.64C82.7272 1158.34 83.8753 1156.42 86.4518 1156.42 89.0282 1156.42 90.1763 1158.34 90.1763 1161.64 90.1763 1164.94 89.0282 1166.87 86.4518 1166.87 83.8753 1166.87 82.7272 1164.94 82.7272 1161.64ZM88.5038 1162.51 88.5038 1160.78C88.5038 1158.92 87.9343 1157.75 86.4518 1157.75 84.9691 1157.75 84.3997 1158.92 84.3997 1160.78L84.3997 1162.51C84.3997 1164.36 84.9691 1165.54 86.4518 1165.54 87.9343 1165.54 88.5038 1164.36 88.5038 1162.51ZM85.5478 1161.81 85.5478 1161.49C85.5478 1161.1 85.7828 1160.79 86.4518 1160.79 87.1207 1160.79 87.3557 1161.1 87.3557 1161.49L87.3557 1161.81C87.3557 1162.19 87.1207 1162.5 86.4518 1162.5 85.7828 1162.5 85.5478 1162.19 85.5478 1161.81Z" fill="#FFFFFF"/><path d="M99.0258 1166.7 92.0197 1166.7 92.0197 1165.15 95.3373 1162.27C96.3679 1161.35 96.9827 1160.55 96.9827 1159.64L96.9827 1159.47C96.9827 1158.42 96.3679 1157.83 95.2832 1157.83 94.1983 1157.83 93.5926 1158.5 93.3214 1159.42L91.8931 1158.89C92.2999 1157.61 93.3304 1156.43 95.4007 1156.43 97.4709 1156.43 98.7003 1157.67 98.7003 1159.39 98.7003 1161 97.6698 1162.1 96.2414 1163.27L93.7825 1165.32 99.0348 1165.32 99.0348 1166.7 99.0258 1166.7Z" fill="#FFFFFF"/><path d="M105.372 1166.7 105.372 1164.73 100.545 1164.73 100.545 1163.33 104.794 1156.59 106.927 1156.59 106.927 1163.45 108.355 1163.45 108.355 1164.73 106.927 1164.73 106.927 1166.7 105.372 1166.7ZM101.928 1163.45 105.372 1163.45 105.372 1158.08 105.282 1158.08 101.919 1163.45 101.928 1163.45Z" fill="#FFFFFF"/><g><path d="M159.505 1230.39C198.103 1230.39 229.393 1199.1 229.393 1160.5 229.393 1121.91 198.103 1090.62 159.505 1090.62 120.906 1090.62 89.6151 1121.91 89.6151 1160.5 89.6151 1199.1 120.906 1230.39 159.505 1230.39Z" fill="#FF7EB6"/><path d="M159.505 1260C214.454 1260 259 1215.45 259 1160.5 259 1105.55 214.454 1061.01 159.505 1061.01 104.555 1061.01 60.0092 1105.55 60.0092 1160.5 60.0092 1215.45 104.555 1260 159.505 1260Z" fill="#21272A"/><path d="M134.309 1107.03 132.049 1108.34C130.54 1109.22 129.292 1108.66 128.506 1107.31L128.09 1106.59C125.125 1107.81 122.458 1105.96 120.089 1101.87 117.504 1097.41 117.432 1093.98 120.722 1092.08 124.013 1090.17 126.951 1091.94 129.527 1096.41 131.896 1100.5 132.149 1103.75 129.636 1105.69L130.621 1107.39 133.541 1105.7 134.309 1107.03ZM128.451 1098.52 127.159 1096.28C125.577 1093.54 123.696 1092.26 121.545 1093.5 119.402 1094.75 119.574 1097.02 121.165 1099.76L122.458 1101.99C124.04 1104.73 125.929 1106.01 128.072 1104.77 130.214 1103.53 130.042 1101.26 128.451 1098.52Z" fill="#FFFFFF"/><path d="M135.728 1102.29 135.258 1100.85 138.956 1099.63 134.969 1087.52 131.272 1088.74 130.802 1087.31 139.968 1084.29 140.438 1085.73 136.741 1086.95 140.728 1099.05 144.425 1097.83 144.895 1099.27 135.728 1102.29Z" fill="#FFFFFF"/><path d="M146.712 1096.24 147.942 1094.96C149.307 1096.36 150.663 1096.96 152.525 1096.75 154.767 1096.5 155.87 1095.27 155.652 1093.38 155.482 1091.85 154.613 1091.13 152.471 1091L150.708 1090.9C147.607 1090.72 146.459 1089.06 146.233 1087.08 145.917 1084.21 147.77 1082.5 150.925 1082.15 153.393 1081.87 155.174 1082.58 156.385 1083.97L155.201 1085.26C154.207 1084.22 153.013 1083.56 151.079 1083.76 148.99 1084 147.914 1085.05 148.113 1086.82 148.267 1088.21 149.081 1089.03 151.323 1089.17L153.022 1089.28C156.123 1089.48 157.317 1091.08 157.542 1093.12 157.868 1096.01 156.087 1097.99 152.642 1098.37 149.867 1098.68 148.05 1097.72 146.712 1096.24Z" fill="#FFFFFF"/><path d="M165.362 1090.24 162.886 1092.69 162.406 1097.72 160.535 1097.55 162.018 1081.85 163.889 1082.02 163.111 1090.21 163.175 1090.21 165.471 1087.8 170.578 1082.65 172.829 1082.86 166.754 1088.96 171.501 1098.58 169.322 1098.37 165.354 1090.24 165.362 1090.24Z" fill="#FFFFFF"/><path d="M173.128 1099.04 173.579 1097.59 177.295 1098.75 181.083 1086.58 177.367 1085.43 177.819 1083.98 187.04 1086.85 186.588 1088.29 182.872 1087.14 179.085 1099.3 182.8 1100.46 182.348 1101.91 173.128 1099.04Z" fill="#FFFFFF"/><path d="M197.048 1093.58 190.169 1105.92 188.532 1105.01 195.412 1092.67 190.864 1090.13 191.669 1088.69 202.409 1094.68 201.604 1096.11 197.057 1093.57 197.048 1093.58Z" fill="#FFFFFF"/><path d="M100.734 1211.67 111.971 1200.6 118.977 1207.71 117.802 1208.87 112.134 1203.11 108.355 1206.84 113.544 1212.11 112.369 1213.26 107.18 1207.99 102.081 1213.03 100.743 1211.67 100.734 1211.67Z" fill="#FFFFFF"/><path d="M119.981 1227.62 121.346 1223.12 116.708 1220.05 113.11 1223.06 111.465 1221.97 124.23 1211.5 126.336 1212.89 121.68 1228.73 119.999 1227.62 119.981 1227.62ZM124.23 1213.92 124.058 1213.81 117.992 1218.94 121.87 1221.51 124.221 1213.93 124.23 1213.92Z" fill="#FFFFFF"/><path d="M127.086 1231.32 132.854 1216.63 134.626 1217.32 129.464 1230.48 136.461 1233.22 135.855 1234.76 127.086 1231.32Z" fill="#FFFFFF"/><path d="M142.446 1236.43 145.013 1220.87 146.894 1221.17 144.589 1235.11 152.001 1236.34 151.73 1237.97 142.437 1236.43 142.446 1236.43Z" fill="#FFFFFF"/><path d="M173.905 1236.88 169.991 1221.6 179.664 1219.11 180.07 1220.71 172.242 1222.72 173.561 1227.86 180.73 1226.02 181.137 1227.62 173.968 1229.46 175.749 1236.41 173.905 1236.88Z" fill="#FFFFFF"/><path d="M189.382 1232.19 182.385 1218.05 191.135 1213.72 191.868 1215.2 184.826 1218.68 187.176 1223.44 193.974 1220.08 194.706 1221.56 187.908 1224.93 190.358 1229.87 197.4 1226.39 198.133 1227.87 189.382 1232.2 189.382 1232.19Z" fill="#FFFFFF"/><path d="M201.206 1223.06 201.595 1221.32C203.512 1221.77 204.985 1221.55 206.486 1220.37 208.285 1218.95 208.583 1217.3 207.407 1215.81 206.458 1214.61 205.328 1214.46 203.412 1215.51L201.839 1216.38C199.073 1217.9 197.201 1217.11 195.972 1215.54 194.182 1213.27 194.878 1210.82 197.41 1208.82 199.389 1207.26 201.306 1206.91 203.077 1207.43L202.743 1209.17C201.333 1208.81 199.959 1208.9 198.404 1210.12 196.732 1211.44 196.361 1212.91 197.464 1214.31 198.331 1215.41 199.461 1215.67 201.459 1214.58L202.978 1213.76C205.753 1212.26 207.625 1212.97 208.89 1214.59 210.698 1216.88 210.201 1219.52 207.435 1221.7 205.211 1223.45 203.141 1223.61 201.206 1223.07L201.206 1223.06Z" fill="#FFFFFF"/><path d="M208.664 1200.4 219.485 1209.47 218.265 1210.94 207.444 1201.86 204.045 1205.92 202.779 1204.86 210.798 1195.29 212.063 1196.35 208.664 1200.41 208.664 1200.4Z" fill="#FFFFFF"/><path d="M159.505 1195.18C140.385 1195.18 124.827 1179.62 124.827 1160.5 124.827 1141.38 140.385 1125.83 159.505 1125.83 178.625 1125.83 194.182 1141.38 194.182 1160.5 194.182 1179.62 178.625 1195.18 159.505 1195.18ZM159.505 1127.27C141.18 1127.27 126.273 1142.18 126.273 1160.5 126.273 1178.83 141.18 1193.74 159.505 1193.74 177.829 1193.74 192.736 1178.83 192.736 1160.5 192.736 1142.18 177.829 1127.27 159.505 1127.27Z" fill="#FF7EB6"/><path d="M171.988 1165.44 171.916 1163.99C186.462 1163.22 192.41 1161.44 192.736 1160.48 192.256 1159.15 180.74 1156.7 159.504 1156.7 158.591 1156.7 157.696 1156.7 156.801 1156.72L156.783 1155.27C157.678 1155.26 158.582 1155.25 159.495 1155.25 168.599 1155.25 177.159 1155.72 183.605 1156.58 194.182 1157.99 194.182 1159.75 194.182 1160.5 194.182 1163.78 180.279 1165 171.988 1165.43L171.988 1165.44Z" fill="#FF7EB6"/><path d="M159.505 1165.76C150.401 1165.76 141.84 1165.29 135.394 1164.43 124.817 1163.02 124.817 1161.26 124.817 1160.51 124.817 1157.23 138.721 1156.01 147.011 1155.58L147.083 1157.02C132.538 1157.79 126.589 1159.58 126.264 1160.54 126.743 1161.87 138.26 1164.32 159.495 1164.32 160.409 1164.32 161.303 1164.32 162.199 1164.3L162.217 1165.75C161.321 1165.76 160.417 1165.77 159.505 1165.77L159.505 1165.76Z" fill="#FF7EB6"/><path d="M149.262 1142.03 148.021 1142.77 170.205 1179.75 171.445 1179.01 149.262 1142.03Z" fill="#FF7EB6"/><path d="M147.056 1143.11C144.787 1143.11 142.934 1141.27 142.934 1138.99 142.934 1136.71 144.778 1134.87 147.056 1134.87 149.334 1134.87 151.178 1136.71 151.178 1138.99 151.178 1141.27 149.334 1143.11 147.056 1143.11ZM147.056 1136.32C145.583 1136.32 144.38 1137.53 144.38 1139 144.38 1140.47 145.583 1141.68 147.056 1141.68 148.53 1141.68 149.732 1140.47 149.732 1139 149.732 1137.53 148.53 1136.32 147.056 1136.32Z" fill="#FF7EB6"/><path d="M171.953 1186.12C169.683 1186.12 167.83 1184.28 167.83 1182 167.83 1179.72 169.674 1177.88 171.953 1177.88 174.231 1177.88 176.074 1179.72 176.074 1182 176.074 1184.28 174.231 1186.12 171.953 1186.12ZM171.953 1179.33C170.479 1179.33 169.276 1180.54 169.276 1182.01 169.276 1183.48 170.479 1184.69 171.953 1184.69 173.425 1184.69 174.628 1183.48 174.628 1182.01 174.628 1180.54 173.425 1179.33 171.953 1179.33Z" fill="#FF7EB6"/><path d="M159.505 1183.86C151.839 1183.86 144.625 1183.39 139.192 1182.53 131.146 1181.25 130.215 1179.68 130.215 1178.61 130.215 1177.55 131.146 1175.97 139.192 1174.7 144.625 1173.84 151.839 1173.36 159.505 1173.36 167.171 1173.36 174.385 1173.83 179.818 1174.7 187.864 1175.97 188.795 1177.55 188.795 1178.61 188.795 1180.66 184.292 1182.16 175.406 1183.11L175.253 1181.67C185.296 1180.61 187.349 1178.99 187.349 1178.61 187.349 1177.32 177.522 1174.81 159.496 1174.81 141.47 1174.81 131.652 1177.32 131.652 1178.61 131.652 1179.9 141.479 1182.42 159.496 1182.42 162.624 1182.42 165.697 1182.34 168.626 1182.18L168.707 1183.63C165.752 1183.79 162.651 1183.86 159.496 1183.86L159.505 1183.86Z" fill="#FF7EB6"/><path d="M159.505 1147.64C151.839 1147.64 144.625 1147.17 139.192 1146.3 131.146 1145.03 130.215 1143.46 130.215 1142.39 130.215 1140.35 134.717 1138.84 143.585 1137.9L143.739 1139.34C133.713 1140.4 131.661 1142.02 131.661 1142.39 131.661 1143.68 141.488 1146.19 159.505 1146.19 177.522 1146.19 187.357 1143.68 187.357 1142.39 187.357 1141.1 177.531 1138.58 159.505 1138.58 156.377 1138.58 153.303 1138.66 150.374 1138.82L150.293 1137.37C153.249 1137.21 156.35 1137.14 159.505 1137.14 167.171 1137.14 174.385 1137.61 179.818 1138.47 187.864 1139.75 188.795 1141.32 188.795 1142.39 188.795 1143.46 187.864 1145.03 179.818 1146.3 174.385 1147.16 167.171 1147.64 159.505 1147.64Z" fill="#FF7EB6"/><path d="M219.199 1166.7 212.193 1166.7 212.193 1165.15 215.51 1162.27C216.541 1161.35 217.156 1160.55 217.156 1159.64L217.156 1159.47C217.156 1158.42 216.541 1157.83 215.457 1157.83 214.371 1157.83 213.766 1158.5 213.495 1159.42L212.066 1158.89C212.472 1157.61 213.503 1156.43 215.574 1156.43 217.644 1156.43 218.873 1157.67 218.873 1159.39 218.873 1161 217.843 1162.1 216.414 1163.27L213.956 1165.32 219.208 1165.32 219.208 1166.7 219.199 1166.7Z" fill="#FFFFFF"/><path d="M220.925 1161.64C220.925 1158.34 222.074 1156.42 224.65 1156.42 227.227 1156.42 228.375 1158.34 228.375 1161.64 228.375 1164.94 227.227 1166.87 224.65 1166.87 222.074 1166.87 220.925 1164.94 220.925 1161.64ZM226.702 1162.51 226.702 1160.78C226.702 1158.92 226.133 1157.75 224.65 1157.75 223.168 1157.75 222.598 1158.92 222.598 1160.78L222.598 1162.51C222.598 1164.36 223.168 1165.54 224.65 1165.54 226.133 1165.54 226.702 1164.36 226.702 1162.51ZM223.746 1161.81 223.746 1161.49C223.746 1161.1 223.982 1160.79 224.65 1160.79 225.319 1160.79 225.554 1161.1 225.554 1161.49L225.554 1161.81C225.554 1162.19 225.319 1162.5 224.65 1162.5 223.982 1162.5 223.746 1162.19 223.746 1161.81Z" fill="#FFFFFF"/><path d="M237.225 1166.7 230.218 1166.7 230.218 1165.15 233.535 1162.27C234.566 1161.35 235.181 1160.55 235.181 1159.64L235.181 1159.47C235.181 1158.42 234.566 1157.83 233.482 1157.83 232.397 1157.83 231.791 1158.5 231.52 1159.42L230.091 1158.89C230.499 1157.61 231.529 1156.43 233.599 1156.43 235.669 1156.43 236.899 1157.67 236.899 1159.39 236.899 1161 235.868 1162.1 234.439 1163.27L231.981 1165.32 237.233 1165.32 237.233 1166.7 237.225 1166.7Z" fill="#FFFFFF"/><path d="M245.341 1156.71 245.341 1158.11 240.778 1158.11 240.519 1161.68 240.635 1161.68C241.095 1160.89 241.671 1160.38 242.808 1160.38 244.535 1160.38 245.859 1161.55 245.859 1163.52 245.859 1165.51 244.535 1166.93 242.232 1166.93 240.419 1166.93 239.469 1166.05 238.849 1165.13L240.03 1164.21C240.533 1164.99 241.095 1165.58 242.261 1165.58 243.499 1165.58 244.175 1164.84 244.175 1163.68L244.175 1163.56C244.175 1162.4 243.485 1161.71 242.261 1161.71 241.369 1161.71 240.894 1162.09 240.519 1162.5L239.181 1162.31 239.555 1156.71 245.341 1156.71Z" fill="#FFFFFF"/><path d="M81.0001 1166.7 73.9941 1166.7 73.9941 1165.15 77.3118 1162.27C78.3424 1161.35 78.9571 1160.55 78.9571 1159.64L78.9571 1159.47C78.9571 1158.42 78.3424 1157.83 77.2575 1157.83 76.1728 1157.83 75.5671 1158.5 75.2959 1159.42L73.8675 1158.89C74.2743 1157.61 75.3049 1156.43 77.375 1156.43 79.4453 1156.43 80.6747 1157.67 80.6747 1159.39 80.6747 1161 79.6441 1162.1 78.2158 1163.27L75.7569 1165.32 81.0092 1165.32 81.0092 1166.7 81.0001 1166.7Z" fill="#FFFFFF"/><path d="M82.7272 1161.64C82.7272 1158.34 83.8753 1156.42 86.4518 1156.42 89.0282 1156.42 90.1763 1158.34 90.1763 1161.64 90.1763 1164.94 89.0282 1166.87 86.4518 1166.87 83.8753 1166.87 82.7272 1164.94 82.7272 1161.64ZM88.5038 1162.51 88.5038 1160.78C88.5038 1158.92 87.9343 1157.75 86.4518 1157.75 84.9691 1157.75 84.3997 1158.92 84.3997 1160.78L84.3997 1162.51C84.3997 1164.36 84.9691 1165.54 86.4518 1165.54 87.9343 1165.54 88.5038 1164.36 88.5038 1162.51ZM85.5478 1161.81 85.5478 1161.49C85.5478 1161.1 85.7828 1160.79 86.4518 1160.79 87.1207 1160.79 87.3557 1161.1 87.3557 1161.49L87.3557 1161.81C87.3557 1162.19 87.1207 1162.5 86.4518 1162.5 85.7828 1162.5 85.5478 1162.19 85.5478 1161.81Z" fill="#FFFFFF"/><path d="M99.0258 1166.7 92.0197 1166.7 92.0197 1165.15 95.3373 1162.27C96.3679 1161.35 96.9827 1160.55 96.9827 1159.64L96.9827 1159.47C96.9827 1158.42 96.3679 1157.83 95.2832 1157.83 94.1983 1157.83 93.5926 1158.5 93.3214 1159.42L91.8931 1158.89C92.2999 1157.61 93.3304 1156.43 95.4007 1156.43 97.4709 1156.43 98.7003 1157.67 98.7003 1159.39 98.7003 1161 97.6698 1162.1 96.2414 1163.27L93.7825 1165.32 99.0348 1165.32 99.0348 1166.7 99.0258 1166.7Z" fill="#FFFFFF"/><path d="M107.142 1156.71 107.142 1158.11 102.58 1158.11 102.321 1161.68 102.436 1161.68C102.896 1160.89 103.472 1160.38 104.609 1160.38 106.336 1160.38 107.66 1161.55 107.66 1163.52 107.66 1165.51 106.336 1166.93 104.033 1166.93 102.22 1166.93 101.27 1166.05 100.651 1165.13L101.831 1164.21C102.335 1164.99 102.896 1165.58 104.062 1165.58 105.3 1165.58 105.977 1164.84 105.977 1163.68L105.977 1163.56C105.977 1162.4 105.286 1161.71 104.062 1161.71 103.17 1161.71 102.695 1162.09 102.321 1162.5L100.982 1162.31 101.356 1156.71 107.142 1156.71Z" fill="#FFFFFF"/></g></g></g></g></g></g></svg>